<svg width="282" height="39" viewBox="0 0 282 39" fill="none" xmlns="http://www.w3.org/2000/svg">
<g clip-path="url(#clip0_21_753)">
<path d="M278.398 26.1502C278.179 26.4089 277.92 26.6443 277.747 26.9312C277.264 27.7372 276.736 28.5083 276.179 29.2662C275.382 30.3507 274.889 31.5762 274.764 32.9228C274.708 33.5248 274.767 34.1384 274.78 34.7453C274.783 34.9161 274.811 35.0869 274.818 35.2594C274.821 35.3373 274.82 35.4319 274.78 35.4899C274.595 35.7602 274.31 35.6806 274.056 35.6624C273.804 35.6458 273.677 35.5247 273.662 35.3008C273.649 35.1035 273.659 34.9028 273.683 34.7072C273.941 32.7354 273.431 30.9577 272.336 29.3292C272.166 29.0771 271.985 28.8317 271.793 28.5962C271.2 27.8649 270.759 27.0374 270.283 26.2314C270.685 25.976 271.353 26.044 271.713 26.3973C271.897 26.578 272.037 26.8102 272.176 27.0324C272.849 28.1087 273.513 29.1882 274.181 30.2661C274.216 30.3209 274.246 30.3806 274.292 30.4618C274.394 30.3424 274.452 30.291 274.491 30.2264C275.08 29.2712 275.72 28.3458 276.189 27.3176C276.474 26.6924 276.901 26.1966 277.612 26.0507C277.867 25.9976 278.135 26.0092 278.397 25.991V26.1502H278.398Z" fill="white"/>
<path d="M64.917 18.3892C64.917 23.7291 64.917 29.0689 64.917 34.4087C64.917 34.5679 64.9203 34.7271 64.9121 34.8863C64.8939 35.208 64.8049 35.3109 64.48 35.3291C64.1518 35.3473 63.8203 35.3357 63.4904 35.3357C62.1991 35.3374 60.9062 35.3391 59.6148 35.3407C59.4433 35.3407 59.2718 35.349 59.1003 35.3407C58.6088 35.3158 58.4109 35.1168 58.3845 34.6293C58.3779 34.4966 58.3812 34.3639 58.3812 34.2313C58.3862 30.0307 58.3911 25.8302 58.3961 21.6296C58.3961 21.3908 58.401 21.152 58.3845 20.9149C58.3515 20.4439 58.1421 20.2117 57.6803 20.1587C57.367 20.1238 57.0487 20.1205 56.7337 20.1222C53.8855 20.1321 51.0374 20.1504 48.1892 20.1554C47.0018 20.1554 45.816 20.1272 44.6286 20.1139C43.7446 20.1039 43.4923 20.3411 43.4923 21.2382C43.4923 22.9082 43.5137 24.5765 43.5187 26.2464C43.5269 28.9097 43.5302 31.573 43.5352 34.2363C43.5368 35.1483 43.3208 35.3606 42.4153 35.349C41.3351 35.3341 40.2532 35.3175 39.1714 35.3125C38.6436 35.3092 38.1175 35.3324 37.5898 35.3407C37.4974 35.3407 37.4034 35.344 37.3127 35.3324C37.0192 35.291 36.9318 35.1799 36.9417 34.878C36.968 33.966 37.0159 33.0522 37.0175 32.1401C37.0225 22.3609 37.0208 12.5818 37.0225 2.80422C37.0225 2.55381 37.0357 2.30009 37.0736 2.053C37.1247 1.71304 37.2517 1.59364 37.5832 1.54389C37.7514 1.51902 37.9246 1.52399 38.0961 1.52233C39.6134 1.51404 41.129 1.50575 42.6462 1.49911C42.765 1.49911 42.8837 1.50741 43.0008 1.52399C43.2465 1.56047 43.4115 1.69977 43.4626 1.94852C43.4972 2.11601 43.5286 2.28848 43.5286 2.45763C43.5286 5.99485 43.5236 9.53374 43.517 13.071C43.517 13.4557 43.4939 13.8388 43.4906 14.2218C43.4906 14.3794 43.5022 14.5402 43.522 14.6961C43.5879 15.2003 43.8139 15.4241 44.3251 15.4424C44.8512 15.4606 45.3806 15.4474 45.9067 15.4474C49.652 15.449 53.3974 15.4507 57.1443 15.4523C57.3159 15.4523 57.489 15.454 57.6589 15.4357C58.1009 15.3877 58.3515 15.1389 58.3829 14.6862C58.406 14.3562 58.3977 14.0245 58.3961 13.6928C58.3911 9.95661 58.3862 6.22039 58.3812 2.48251C58.3812 1.66329 58.5758 1.48585 59.3872 1.49082C61.0216 1.50077 62.6576 1.49746 64.2936 1.49911C64.32 1.49911 64.3464 1.49911 64.3728 1.49911C64.856 1.49911 64.9088 1.55052 64.9088 2.04968C64.9088 7.49565 64.9088 12.9416 64.9088 18.3876C64.9104 18.3876 64.9137 18.3876 64.9154 18.3876L64.917 18.3892Z" fill="white"/>
<path d="M33.5826 35.1667C33.4226 35.1733 33.2957 35.1833 33.1687 35.1849C31.0445 35.1883 28.922 35.1899 26.7978 35.1916C26.308 35.1916 26.214 35.1286 26.0639 34.7007C23.4466 27.2349 20.8277 19.7724 18.217 12.3049C17.6893 10.7942 17.1714 9.27847 16.8103 7.71632C16.802 7.68149 16.769 7.6533 16.7344 7.60189C16.586 7.68647 16.581 7.84069 16.5382 7.96673C15.8851 9.92522 15.2336 11.8837 14.5822 13.8422C13.8186 16.1406 13.0567 18.4391 12.2948 20.7375C12.2387 20.91 12.1925 21.0841 12.115 21.3462C12.336 21.2815 12.4811 21.2417 12.623 21.1969C13.9407 20.7773 15.2567 20.3512 16.5777 19.9382C16.9158 19.8321 17.2655 19.7508 17.6134 19.6845C18.0637 19.5983 18.2962 19.7724 18.4446 20.2119C18.6013 20.6729 18.7893 21.1239 18.9625 21.58C19.0614 21.8387 19.1736 22.0941 19.2527 22.3577C19.3731 22.7541 19.2247 23.0758 18.885 23.2748C18.603 23.4406 18.2979 23.5799 17.9862 23.6728C16.5332 24.1073 15.1974 24.7922 13.9176 25.5882C12.303 26.5915 10.9292 27.8501 9.93972 29.4985C9.49443 30.2398 9.15635 31.0275 8.88753 31.8467C8.67808 32.4868 8.45214 33.122 8.23115 33.7604C8.14044 34.0224 8.04314 34.2828 7.95573 34.5465C7.78092 35.0722 7.62424 35.1883 7.06187 35.1916C6.85077 35.1916 6.63967 35.1916 6.42857 35.1916C4.44954 35.1916 2.47215 35.1916 0.49311 35.1916H0C0.0593711 35.0174 0.100601 34.8848 0.150077 34.7571C2.14231 29.7406 4.15103 24.7325 6.12347 19.7077C8.41586 13.872 10.6786 8.02311 12.9479 2.17915C13.2876 1.30355 13.5152 1.1062 14.5047 1.12113C16.0615 1.14435 17.6184 1.12113 19.1736 1.12445C19.3698 1.12445 19.5727 1.12445 19.7623 1.16922C20.1186 1.25545 20.2917 1.544 20.4154 1.86075C20.6892 2.56388 20.9564 3.26867 21.2268 3.9718C22.9568 8.45096 24.6868 12.9301 26.4185 17.4093C26.4515 17.4955 26.4845 17.5817 26.5191 17.668C26.7269 18.1787 27.0897 18.4225 27.6554 18.4059C28.828 18.3711 30.0022 18.3678 31.1764 18.3512C31.282 18.3512 31.3875 18.3479 31.4931 18.3628C31.7504 18.396 31.8823 18.5071 31.8938 18.7708C31.9136 19.2467 31.912 19.7243 31.8971 20.2002C31.8856 20.5468 31.6399 20.7127 31.3348 20.7757C30.9736 20.8503 30.6075 20.8984 30.243 20.9564C29.8785 21.0128 29.514 21.0659 29.1496 21.1223C29.0853 21.1322 29.0209 21.1505 28.9583 21.1671C28.3184 21.3445 28.1551 21.6032 28.3497 22.2466C28.5064 22.764 28.7092 23.2698 28.9055 23.774C30.1111 26.8817 31.3216 29.9877 32.5271 33.0954C32.7861 33.7637 33.0813 34.4122 33.5018 34.9975C33.5298 35.0373 33.5463 35.0854 33.5859 35.1667H33.5826Z" fill="white"/>
<path d="M87.5526 0.00817941C88.2255 0.00817941 88.8984 0.0231044 89.5712 0.00486275C90.3134 -0.0166956 91.0374 0.0645627 91.7614 0.242004C93.1302 0.576988 94.5188 0.827396 95.8563 1.28841C97.0602 1.703 98.1965 2.25356 99.2438 2.97991C99.7847 3.35469 99.7897 3.48239 99.3213 3.95335C98.2394 5.03956 97.1625 6.13074 96.0823 7.22027C96.0262 7.27665 95.9734 7.33635 95.9124 7.38776C95.7079 7.56023 95.5991 7.56852 95.3814 7.42093C95.2824 7.35459 95.1934 7.27499 95.101 7.20203C93.6415 6.02959 92.0021 5.25017 90.1567 4.93011C88.6972 4.67804 87.2426 4.73609 85.7929 5.01303C84.7688 5.20871 83.7628 5.4757 82.7996 5.88365C80.5452 6.83719 78.9966 8.49387 78.0334 10.7326C77.4645 12.056 77.1396 13.444 76.9433 14.8635C76.7768 16.0708 76.6729 17.2847 76.7025 18.5069C76.7652 21.069 77.2567 23.5316 78.4738 25.8069C79.9102 28.495 82.1779 30.0572 85.1365 30.6177C87.0727 30.9842 89.0155 30.9892 90.9467 30.548C92.05 30.296 93.084 29.8714 94.0208 29.233C94.3786 28.9892 94.7134 28.7056 95.0268 28.4038C95.5859 27.8649 95.7788 27.8566 96.3231 28.4254C96.9069 29.0373 97.4857 29.6558 98.0762 30.2611C98.4357 30.6293 98.8166 30.9775 99.1877 31.3357C99.1976 31.3457 99.2075 31.3523 99.2174 31.3623C99.849 31.9361 99.8292 32.2329 99.1135 32.7204C98.2147 33.3324 97.2548 33.8266 96.2472 34.2312C94.8586 34.7884 93.4139 35.135 91.9362 35.3589C89.9341 35.6623 87.9237 35.7801 85.9034 35.664C83.1014 35.5048 80.3951 34.9144 77.8685 33.6475C74.547 31.9808 72.2992 29.354 71.0392 25.8583C70.4702 24.2829 70.1453 22.6511 69.9276 20.9927C69.7512 19.6379 69.6605 18.2764 69.7099 16.9116C69.8039 14.3262 70.2674 11.8089 71.2091 9.39434C72.7263 5.50721 75.4673 2.86051 79.333 1.3763C80.6771 0.860562 82.0542 0.459246 83.4972 0.318288C83.6638 0.301704 83.8485 0.263563 83.9854 0.174013C84.2493 0.00154607 84.5296 0.00486275 84.8215 0.00652108C85.7319 0.00983774 86.6423 0.00652108 87.551 0.00652108L87.5526 0.00817941Z" fill="white"/>
<path d="M139.581 12.6878C139.655 12.5684 139.733 12.449 139.802 12.3263C140.134 11.7343 140.523 11.187 141.023 10.7243C141.984 9.83382 143.115 9.45904 144.407 9.64643C145.432 9.79568 146.124 10.4026 146.513 11.3611C146.782 12.0212 146.872 12.7177 146.894 13.4191C146.912 14.041 146.869 14.6629 146.852 15.2848C146.848 15.444 146.829 15.6032 146.834 15.7607C146.844 16.1388 146.991 16.293 147.362 16.3096C147.666 16.3229 147.969 16.3129 148.272 16.3129C150.619 16.3129 152.968 16.3129 155.314 16.3129C155.46 16.3129 155.605 16.3196 155.75 16.308C156.118 16.2781 156.273 16.1222 156.294 15.759C156.304 15.5882 156.294 15.4141 156.294 15.2433C156.294 13.6795 156.292 12.1157 156.291 10.5535C156.291 10.4872 156.291 10.4209 156.292 10.3545C156.292 10.3147 156.292 10.2749 156.301 10.2351C156.367 9.90016 156.583 9.78241 157.112 9.79734C157.519 9.80729 157.688 9.93001 157.736 10.2584C157.749 10.3496 157.744 10.4441 157.744 10.5353C157.749 12.5352 157.754 14.5369 157.757 16.5368C157.757 17.2963 157.671 17.3908 156.924 17.3908C146.953 17.3875 136.984 17.3842 127.013 17.3792C126.482 17.3792 125.962 17.303 125.456 17.1404C124.791 16.9282 124.245 16.5385 123.882 15.9415C123.637 15.5385 123.457 15.0924 123.257 14.6629C123.219 14.5816 123.208 14.4838 123.206 14.3926C123.201 13.8354 123.203 13.2798 123.206 12.7226C123.206 12.6447 123.218 12.5618 123.246 12.4905C123.851 10.8537 124.872 9.73764 126.922 9.62819C127.948 9.57346 128.944 9.73764 129.927 10.0113C130.321 10.1207 130.423 10.2451 130.423 10.6597C130.426 12.2367 130.421 13.8122 130.418 15.3892C130.418 15.429 130.413 15.4688 130.412 15.5086C130.403 16.1405 130.567 16.3113 131.2 16.3129C133.23 16.3146 135.262 16.3129 137.292 16.3129C137.384 16.3129 137.478 16.3162 137.569 16.3013C137.849 16.2599 137.995 16.1289 138.047 15.8486C138.074 15.7076 138.072 15.5584 138.07 15.4141C138.066 13.8105 138.064 12.2086 138.047 10.6049C138.041 9.90347 138.151 9.75256 138.91 9.79734C139.326 9.82221 139.461 9.97478 139.461 10.4059C139.461 11.0278 139.457 11.6514 139.457 12.2732C139.457 12.4009 139.469 12.5286 139.474 12.6563C139.509 12.6663 139.542 12.6762 139.576 12.6878H139.581ZM142.423 16.3129V16.3096C143.228 16.3096 144.032 16.3146 144.837 16.308C145.205 16.3046 145.343 16.1886 145.358 15.8552C145.395 15.0211 145.447 14.1869 145.431 13.3545C145.423 12.8984 145.33 12.4308 145.203 11.9897C145.017 11.3396 144.557 10.9267 143.889 10.8156C143.584 10.7641 143.254 10.7774 142.947 10.8288C142.24 10.9482 141.692 11.3562 141.23 11.8885C140.597 12.6182 140.153 13.4573 139.868 14.3777C139.728 14.832 139.616 15.2964 139.525 15.7624C139.457 16.1139 139.614 16.2798 139.97 16.3096C140.036 16.3146 140.102 16.3113 140.168 16.3113C140.92 16.3113 141.672 16.3113 142.424 16.3113L142.423 16.3129ZM129.064 13.6812H129.066C129.066 13.6016 129.066 13.522 129.066 13.4424C129.064 12.8603 129.076 12.2765 129.058 11.6945C129.041 11.1389 128.858 10.9167 128.311 10.8554C127.789 10.7973 127.257 10.7641 126.736 10.8039C125.906 10.8686 125.251 11.255 124.92 12.0659C124.644 12.7392 124.527 13.439 124.669 14.1637C124.855 15.1239 125.52 16.0393 126.633 16.1736C127.169 16.2383 127.709 16.2731 128.246 16.3179C128.35 16.3262 128.457 16.3196 128.563 16.3146C128.802 16.3013 128.959 16.1736 129.011 15.9398C129.043 15.7988 129.061 15.6529 129.063 15.5086C129.067 14.9 129.064 14.2898 129.064 13.6812Z" fill="white"/>
<path d="M178.706 16.2865C178.919 16.2964 179.047 16.308 179.174 16.308C181.495 16.3097 183.817 16.3113 186.137 16.3113C186.203 16.3113 186.269 16.313 186.335 16.3064C186.662 16.2699 186.81 16.1157 186.81 15.7873C186.812 13.3645 186.813 10.94 186.81 8.51717C186.81 8.00143 186.787 7.48403 186.774 6.96829C186.774 6.92849 186.772 6.88869 186.77 6.84889C186.752 6.04957 187.178 5.88374 187.884 6.03796C188.08 6.08108 188.179 6.20711 188.207 6.39119C188.225 6.50727 188.218 6.62833 188.218 6.74773C188.218 10.0594 188.218 13.3728 188.218 16.6845C188.218 16.7773 188.223 16.8702 188.213 16.9631C188.182 17.2466 188.063 17.3627 187.785 17.3793C187.64 17.3876 187.494 17.3826 187.349 17.3826C181.429 17.3826 175.506 17.3793 169.586 17.3793C166.949 17.3793 164.312 17.3876 161.673 17.3893C160.86 17.3893 160.726 17.2566 160.726 16.4506C160.726 13.2849 160.726 10.1175 160.726 6.95171C160.726 6.89864 160.726 6.84557 160.726 6.79251C160.741 6.12586 161.239 5.79916 161.864 6.04294C162.018 6.10264 162.102 6.20214 162.117 6.363C162.125 6.45586 162.13 6.54873 162.131 6.63994C162.143 8.53376 162.159 10.4276 162.161 12.323C162.161 13.2899 162.131 14.2567 162.12 15.2235C162.118 15.381 162.12 15.5419 162.148 15.6978C162.219 16.119 162.41 16.2914 162.844 16.308C163.226 16.3229 163.609 16.3113 163.992 16.3113C166.84 16.3113 169.688 16.3097 172.538 16.3064C172.703 16.3064 172.869 16.2898 173.104 16.2782C173.014 16.0792 172.957 15.9382 172.891 15.8006C172.503 15.0046 172.266 14.1704 172.287 13.2782C172.328 11.5005 173.536 9.98148 175.333 9.69956C176.128 9.57519 176.91 9.59011 177.672 9.86208C178.843 10.28 179.478 11.144 179.676 12.3496C179.86 13.4806 179.559 14.527 179.08 15.5369C178.975 15.7608 178.859 15.9813 178.708 16.2848L178.706 16.2865ZM178.328 13.4093C178.317 13.2119 178.322 13.0096 178.29 12.8156C178.115 11.7808 177.657 10.8488 176.285 10.7476C175.157 10.6647 174.268 11.1937 173.892 12.2716C173.598 13.1141 173.625 13.9648 173.907 14.8006C174.228 15.7525 174.946 16.2069 175.909 16.2682C176.791 16.3246 177.457 15.9316 177.898 15.1621C178.208 14.6215 178.317 14.0278 178.328 13.4093Z" fill="white"/>
<path d="M272.49 16.2916C271.863 16.9963 271.151 17.5419 270.179 17.5204C269.234 17.5005 268.537 16.9532 267.923 16.2783C267.849 16.3463 267.803 16.3745 267.775 16.4159C267.293 17.1124 266.59 17.3711 265.791 17.3761C263.774 17.391 261.755 17.3811 259.736 17.3811C259.433 17.3811 259.13 17.3778 258.826 17.3794C258.147 17.3811 258.01 17.5204 257.959 18.2136C257.937 18.5154 257.907 18.8222 257.835 19.1157C257.5 20.4523 256.545 21.303 255.183 21.5054C254.497 21.6082 253.816 21.575 253.14 21.4324C252.78 21.3561 252.703 21.245 252.737 20.8802C252.741 20.8536 252.745 20.8271 252.749 20.8022C252.81 20.2981 252.899 20.2434 253.384 20.3346C253.705 20.3943 254.035 20.4308 254.363 20.439C254.611 20.4457 254.865 20.4109 255.107 20.3561C255.716 20.2185 256.166 19.8619 256.356 19.2583C256.473 18.8852 256.565 18.4839 256.567 18.0958C256.585 15.6183 256.577 13.1407 256.578 10.6632C256.578 10.5172 256.575 10.3696 256.601 10.2287C256.654 9.94014 256.789 9.81908 257.078 9.78426C257.182 9.77099 257.289 9.76933 257.393 9.77431C257.812 9.79421 257.952 9.9219 258 10.3481C258.021 10.5322 258.015 10.7179 258.013 10.9036C258 12.4276 257.983 13.95 257.972 15.474C257.972 15.5917 257.983 15.7128 258.008 15.8272C258.072 16.1274 258.213 16.2567 258.513 16.3032C258.59 16.3148 258.671 16.3148 258.75 16.3148C260.954 16.3115 263.155 16.3081 265.357 16.2998C265.593 16.2998 265.83 16.2733 266.064 16.2401C266.907 16.1191 267.336 15.6846 267.412 14.8355C267.461 14.2684 267.478 13.6979 267.488 13.1291C267.498 12.5072 267.478 11.8837 267.476 11.2618C267.476 10.829 267.555 10.7511 267.982 10.7444C268.154 10.7428 268.325 10.7361 268.497 10.7477C268.751 10.7643 268.85 10.8605 268.871 11.1142C268.885 11.2585 268.873 11.4061 268.876 11.5504C268.901 12.6499 268.926 13.7477 268.952 14.8471C268.952 14.9135 268.957 14.9798 268.965 15.0445C269.089 15.9168 269.643 16.4275 270.433 16.4027C271.291 16.3745 271.896 15.7974 271.927 14.9168C271.965 13.819 271.967 12.7178 271.977 11.62C271.98 11.3431 271.945 11.0645 271.947 10.7859C271.952 10.2635 272.115 10.101 272.636 10.0844C272.742 10.0811 272.848 10.0844 272.951 10.101C273.204 10.1391 273.331 10.2585 273.37 10.5056C273.392 10.635 273.384 10.7693 273.382 10.902C273.382 12.0014 273.377 13.1009 273.375 14.2004C273.375 14.3463 273.375 14.4923 273.385 14.6382C273.443 15.5155 273.849 16.0113 274.703 16.1821C275.089 16.2584 275.488 16.2816 275.88 16.2965C276.26 16.3115 276.337 16.2219 276.377 15.8455C276.576 13.9467 276.482 12.0645 276.087 10.1972C276.067 10.1076 276.047 10.0164 276.042 9.92356C276.021 9.55707 276.101 9.46088 276.469 9.38957C276.52 9.37962 276.573 9.37133 276.624 9.36138C277.208 9.25525 277.38 9.37465 277.493 9.96833C277.719 11.1408 277.836 12.3248 277.85 13.5188C277.863 14.6581 277.826 15.7957 277.67 16.925C277.615 17.3164 277.546 17.3794 277.168 17.3811C276.39 17.3827 275.612 17.391 274.835 17.3744C273.972 17.3545 273.197 17.1108 272.631 16.3993C272.608 16.3695 272.57 16.3529 272.486 16.2899L272.49 16.2916Z" fill="white"/>
<path d="M247.594 9.90014C247.853 10.0311 248.028 10.1174 248.201 10.2086C249.883 11.0842 250.972 12.4241 251.336 14.308C251.445 14.8652 251.473 15.4373 251.534 16.0028C251.56 16.2532 251.578 16.5036 251.595 16.754C251.623 17.1835 251.463 17.3742 251.031 17.3842C250.516 17.3975 250.002 17.3842 249.487 17.3842C243.38 17.3842 237.273 17.3842 231.166 17.3842C230.558 17.3842 229.951 17.3693 229.36 17.2117C228.081 16.8718 227.167 16.1322 226.85 14.7889C226.644 13.9199 226.689 13.0477 226.943 12.1969C227.372 10.7641 228.739 9.7227 230.238 9.63149C231.33 9.56515 232.393 9.73928 233.444 10.0046C233.869 10.1124 233.988 10.255 234.014 10.6961C234.033 10.9996 234.001 11.3047 234 11.6082C233.995 12.8802 233.993 14.1521 233.991 15.424C233.991 15.5036 233.991 15.5832 233.998 15.6628C234.043 16.1222 234.217 16.2996 234.684 16.3046C235.542 16.3146 236.399 16.3046 237.257 16.3046C241.226 16.3063 245.198 16.2996 249.167 16.3195C249.9 16.3229 250.281 16.0841 250.101 15.2317C250.008 14.7922 249.947 14.3412 249.801 13.9199C249.253 12.3429 248.127 11.3578 246.57 10.8421C246.469 10.8089 246.365 10.7857 246.268 10.7459C246.083 10.6696 245.976 10.532 245.953 10.3247C245.902 9.8819 246.019 9.51209 246.397 9.24841C246.451 9.21027 246.506 9.17379 246.562 9.13896C247.95 8.27165 249.339 7.406 250.724 6.53372C250.968 6.3795 251.202 6.20703 251.433 6.03125C251.735 5.80074 251.885 5.84054 252.014 6.20371C252.197 6.72111 252.055 7.10419 251.557 7.41264C250.389 8.13567 249.222 8.85705 248.056 9.58008C247.924 9.66134 247.799 9.7542 247.591 9.89516L247.594 9.90014ZM232.67 13.8403C232.67 13.8403 232.669 13.8403 232.667 13.8403C232.667 13.2699 232.674 12.7011 232.664 12.1306C232.659 11.8935 232.629 11.6547 232.588 11.4208C232.535 11.1174 232.349 10.9233 232.047 10.8587C231.88 10.8222 231.709 10.7907 231.541 10.7857C231.158 10.7741 230.775 10.7708 230.393 10.7807C229.43 10.8089 228.676 11.3528 228.343 12.2616C228.096 12.9382 228.038 13.633 228.219 14.3312C228.485 15.3478 229.111 16.0045 230.174 16.1537C230.759 16.2366 231.353 16.2814 231.943 16.3046C232.525 16.3278 232.672 16.162 232.67 15.5866C232.67 15.0028 232.67 14.4208 232.67 13.837V13.8403Z" fill="white"/>
<path d="M112.056 34.9875H110.407V1.32666H112.005C112.028 1.34656 112.04 1.35319 112.048 1.36314C112.056 1.37309 112.063 1.38636 112.065 1.39797C112.075 1.46264 112.089 1.52898 112.089 1.59365C112.089 12.6547 112.089 23.7158 112.088 34.7769C112.088 34.8283 112.073 34.8797 112.056 34.9875Z" fill="white"/>
<path d="M138.533 27.885C138.487 28.0176 138.431 28.147 138.395 28.2813C137.801 30.462 137.211 32.6444 136.619 34.8267C136.597 34.903 136.577 34.9793 136.554 35.0556C136.407 35.5348 136.216 35.6741 135.721 35.6675C135.335 35.6625 135.187 35.5581 135.032 35.1418C134.704 34.2629 134.382 33.3807 134.061 32.4984C133.408 30.7108 132.756 28.9214 132.1 27.1337C132.017 26.9115 131.91 26.6992 131.818 26.4787C131.719 26.2432 131.75 26.1719 131.981 26.094C132.055 26.0691 132.133 26.0475 132.21 26.0326C132.822 25.9016 133.096 26.0442 133.302 26.6429C134.072 28.88 134.834 31.1204 135.601 33.3608C135.655 33.5183 135.721 33.6725 135.862 33.8301C135.903 33.7256 135.952 33.6244 135.984 33.5167C136.66 31.2066 137.334 28.8982 138.007 26.5881C138.126 26.1818 138.226 26.0741 138.543 26.0674C138.861 26.0608 138.995 26.1603 139.102 26.5119C139.282 27.1072 139.455 27.7042 139.628 28.2995C140.107 29.9363 140.582 31.5747 141.063 33.2099C141.116 33.389 141.119 33.6145 141.398 33.6958C141.449 33.578 141.51 33.4636 141.55 33.3442C142.274 31.2033 142.996 29.0607 143.72 26.9198C143.758 26.807 143.797 26.6943 143.849 26.5881C144.071 26.1205 144.741 25.8784 145.198 26.1089C145.26 26.1404 145.318 26.2532 145.316 26.3261C145.313 26.4405 145.264 26.5566 145.222 26.6661C144.192 29.4703 143.159 32.2746 142.127 35.0788C142.086 35.1899 142.061 35.3193 141.987 35.4038C141.898 35.5066 141.766 35.5746 141.65 35.6526C141.63 35.6658 141.599 35.6609 141.573 35.6609C140.868 35.6741 140.765 35.7139 140.562 34.971C139.953 32.7256 139.343 30.4802 138.733 28.2349C138.7 28.1155 138.654 27.9994 138.614 27.8816C138.588 27.8816 138.563 27.8833 138.537 27.885H138.533Z" fill="white"/>
<path d="M216.009 14.3031C216.009 15.4689 216.036 16.6347 216.003 17.8005C215.955 19.5219 215.006 20.7208 213.37 21.2117C212.849 21.3676 212.317 21.4721 211.776 21.4604C210.986 21.4422 210.196 21.4024 209.407 21.3444C208.975 21.3129 208.845 21.1205 208.875 20.6761C208.876 20.6495 208.881 20.623 208.883 20.5965C208.929 20.099 208.946 20.1023 209.44 20.1802C210.273 20.3112 211.109 20.429 211.957 20.3759C212.411 20.3477 212.843 20.2449 213.252 20.0509C214.043 19.6744 214.482 19.036 214.611 18.1769C214.693 17.6214 214.487 17.3975 213.921 17.3809C213.276 17.3627 212.627 17.3743 211.99 17.2947C211.513 17.235 211.035 17.0924 210.587 16.915C209.694 16.5617 209.13 15.8901 208.904 14.9482C208.688 14.0427 208.68 13.129 208.947 12.2385C209.371 10.8272 210.346 10.0047 211.776 9.71448C212.551 9.55694 213.324 9.62659 214.096 9.74267C214.512 9.80569 214.927 9.88694 215.338 9.97649C215.913 10.1009 216.034 10.2634 216.034 10.8471C216.034 11.9997 216.034 13.1522 216.034 14.3047C216.026 14.3047 216.017 14.3047 216.011 14.3047L216.009 14.3031ZM214.625 13.5751C214.625 12.9383 214.614 12.3031 214.63 11.6663C214.64 11.2833 214.475 11.0378 214.142 10.8836C213.636 10.6514 213.111 10.5917 212.561 10.6946C210.608 11.0577 209.869 12.4856 210.204 14.2865C210.377 15.2201 211.052 15.7508 211.909 16.0559C212.539 16.2798 213.196 16.3312 213.859 16.3279C214.411 16.3262 214.584 16.1604 214.622 15.6016C214.629 15.5087 214.627 15.4158 214.627 15.323C214.627 14.7392 214.627 14.1572 214.627 13.5734L214.625 13.5751Z" fill="white"/>
<path d="M240.163 35.218C240.072 35.0107 240.006 34.873 239.95 34.7321C239.125 32.6824 238.304 30.6327 237.479 28.583C237.445 28.4967 237.418 28.4039 237.366 28.3309C237.326 28.2762 237.235 28.2082 237.191 28.2214C237.138 28.2364 237.085 28.3309 237.074 28.3972C237.054 28.5133 237.062 28.6344 237.062 28.7538C237.064 30.7803 237.067 32.8084 237.069 34.8349C237.069 34.9277 237.069 35.0206 237.069 35.1135C237.057 35.5762 236.953 35.679 236.506 35.6707C236.109 35.6624 235.997 35.5546 235.997 35.14C235.993 33.1799 235.997 31.2181 235.997 29.2579C235.997 28.3442 235.99 27.4304 235.982 26.515C235.979 26.1635 236.025 26.1087 236.383 26.0805C237.204 26.0142 237.305 26.0839 237.608 26.8633C238.372 28.8234 239.138 30.7803 239.907 32.7387C239.968 32.893 240.041 33.0439 240.139 33.2661C240.232 33.1119 240.294 33.0323 240.331 32.9427C241.159 30.8665 241.983 28.7886 242.81 26.7124C242.849 26.6145 242.882 26.5134 242.925 26.4172C243.024 26.1867 243.202 26.0722 243.451 26.0656C243.464 26.0656 243.477 26.0623 243.491 26.064C244.365 26.0971 244.297 26.0855 244.292 26.8351C244.281 29.2596 244.292 31.684 244.295 34.1085C244.295 34.4518 244.325 34.7984 244.299 35.14C244.264 35.6043 243.718 35.8713 243.331 35.6209C243.26 35.5745 243.212 35.4501 243.204 35.3573C243.187 35.1732 243.212 34.9874 243.212 34.8017C243.212 32.762 243.212 30.7206 243.212 28.6808C243.212 28.5299 243.19 28.379 243.174 28.1402C243.04 28.2463 242.953 28.2828 242.922 28.3475C242.828 28.5365 242.755 28.7355 242.678 28.9329C241.906 30.8897 241.136 32.8465 240.362 34.8017C240.316 34.9211 240.255 35.0339 240.166 35.2229L240.163 35.218Z" fill="white"/>
<path d="M199.919 10.8654C199.906 10.5967 199.89 10.3861 199.886 10.1772C199.883 9.9898 199.975 9.88698 200.167 9.86376C201.374 9.71783 202.579 9.59843 203.777 9.93176C205.457 10.3994 206.376 11.479 206.6 13.2153C206.735 14.2749 206.691 15.328 206.561 16.3827C206.546 16.5004 206.532 16.6198 206.523 16.7376C206.478 17.2732 206.366 17.3843 205.845 17.3843C205.053 17.3843 204.263 17.376 203.472 17.3876C202.998 17.3943 202.518 17.3909 202.055 17.4722C201.648 17.5452 201.229 17.6762 200.867 17.8752C199.713 18.5087 199.617 19.9597 200.651 20.7806C201.085 21.1255 201.596 21.2947 202.129 21.4124C202.207 21.429 202.286 21.4373 202.363 21.4456C202.863 21.5019 203.063 21.8004 202.927 22.2946C202.884 22.4505 202.795 22.5517 202.619 22.545C201.555 22.4969 200.518 22.3709 199.631 21.691C199.085 21.2731 198.684 20.7524 198.582 20.0658C198.404 18.8552 198.829 17.706 199.926 17.0244C200.485 16.6779 201.1 16.4722 201.745 16.4042C202.424 16.3329 203.11 16.3313 203.795 16.308C204.072 16.2981 204.349 16.3279 204.624 16.3097C204.982 16.2865 205.17 16.1008 205.238 15.7459C205.239 15.7326 205.246 15.7193 205.244 15.7077C205.215 14.8752 205.258 14.0328 205.141 13.2136C204.943 11.8355 203.942 10.9516 202.375 10.8671C201.692 10.8306 201.004 10.8654 200.318 10.8671C200.203 10.8671 200.087 10.8671 199.918 10.8671L199.919 10.8654Z" fill="white"/>
<path d="M262.833 28.1104C262.823 28.2497 262.805 28.389 262.805 28.5283C262.805 30.7139 262.805 32.8996 262.81 35.0853C262.81 35.6027 262.386 35.8714 261.926 35.6259C261.837 35.5778 261.771 35.4551 261.732 35.3523C261.7 35.271 261.722 35.1699 261.722 35.077C261.725 32.5199 261.728 29.9627 261.728 27.4056C261.728 27.1021 261.707 26.797 261.699 26.4918C261.692 26.1933 261.756 26.122 262.052 26.0772C262.546 26.0026 262.904 26.1685 263.178 26.6129C264.542 28.8334 265.922 31.0423 267.299 33.2562C267.41 33.4336 267.53 33.6028 267.685 33.8366C267.735 33.6956 267.778 33.621 267.784 33.5447C267.797 33.4004 267.791 33.2529 267.791 33.1086C267.791 30.976 267.791 28.8417 267.791 26.7091C267.791 26.1237 267.971 25.9827 268.541 26.0855C268.752 26.1237 268.876 26.2398 268.911 26.4421C268.935 26.5847 268.942 26.7306 268.942 26.8766C268.942 29.0224 268.937 31.17 268.939 33.3159C268.939 33.951 268.954 34.5878 268.963 35.223C268.968 35.5181 268.907 35.6176 268.62 35.6508C268.012 35.7205 267.755 35.6674 267.425 35.1218C266.29 33.2429 265.147 31.3673 263.996 29.4967C263.762 29.1153 263.488 28.7555 263.226 28.3923C263.143 28.2779 263.033 28.185 262.936 28.0822C262.901 28.0921 262.866 28.1021 262.832 28.112L262.833 28.1104Z" fill="white"/>
<path d="M200.512 30.9362C200.512 32.2877 200.512 33.6392 200.512 34.9908C200.512 35.1102 200.517 35.2296 200.507 35.349C200.486 35.5944 200.441 35.6392 200.19 35.6591C200.058 35.669 199.926 35.6657 199.794 35.6674C199.463 35.6707 199.27 35.4767 199.108 35.2113C198.426 34.0787 197.738 32.9477 197.045 31.8217C196.318 30.6393 195.581 29.4619 194.845 28.2845C194.766 28.1585 194.72 27.9412 194.522 27.9959C194.318 28.0523 194.398 28.2646 194.397 28.4105C194.392 30.5564 194.393 32.7039 194.393 34.8498C194.393 34.956 194.397 35.0621 194.393 35.1682C194.377 35.5414 194.253 35.6657 193.889 35.6757C193.438 35.6889 193.328 35.5861 193.328 35.1235C193.328 32.5 193.333 29.8765 193.333 27.253C193.333 27.0159 193.303 26.7787 193.282 26.5432C193.254 26.2497 193.341 26.1353 193.636 26.0855C194.199 25.991 194.482 26.1204 194.792 26.6228C196.155 28.8284 197.517 31.034 198.879 33.2396C198.929 33.3175 198.963 33.4154 199.031 33.4701C199.102 33.5281 199.209 33.5796 199.293 33.5713C199.346 33.5646 199.405 33.4452 199.423 33.3673C199.447 33.2661 199.432 33.1567 199.432 33.0505C199.428 30.9577 199.423 28.8632 199.42 26.7704C199.42 26.6776 199.415 26.5847 199.42 26.4918C199.44 26.2016 199.522 26.1187 199.804 26.0972C199.844 26.0938 199.884 26.0955 199.923 26.0938C200.443 26.0889 200.517 26.1618 200.517 26.6875C200.517 28.1054 200.517 29.5233 200.517 30.9411H200.514L200.512 30.9362Z" fill="white"/>
<path d="M225.163 30.9213C225.201 30.2928 225.281 29.6809 225.443 29.074C225.865 27.4902 226.898 26.5251 228.44 26.1006C229.998 25.6711 231.472 25.9613 232.846 26.7772C233.432 27.1254 233.847 27.6511 234.081 28.2862C234.68 29.9081 234.751 31.5548 234.1 33.1717C233.509 34.6327 232.421 35.5746 230.859 35.8565C229.325 36.1335 227.917 35.757 226.701 34.7836C225.916 34.1551 225.516 33.2712 225.324 32.2994C225.235 31.8467 225.215 31.3807 225.164 30.9213H225.163ZM233.412 30.8368C233.374 30.4819 233.356 30.1237 233.295 29.7738C233.191 29.1685 233.003 28.5881 232.655 28.079C231.949 27.0425 230.979 26.4389 229.714 26.5549C228.332 26.681 227.315 27.4289 226.804 28.7406C226.244 30.1718 226.24 31.6411 226.772 33.0871C227.27 34.4436 228.562 35.3143 229.968 35.2297C231.235 35.1534 232.185 34.5199 232.793 33.4022C233.226 32.6079 233.387 31.7406 233.412 30.8368Z" fill="white"/>
<path d="M168.785 25.9646C169.222 26.0276 169.764 26.0608 170.284 26.1918C171.714 26.5533 172.67 27.4637 173.086 28.8849C173.485 30.2514 173.468 31.6344 173.025 32.991C172.507 34.5796 171.371 35.4602 169.754 35.7421C168.915 35.8881 168.076 35.8748 167.244 35.6708C165.687 35.2894 164.673 34.3193 164.23 32.7803C163.87 31.5349 163.86 30.268 164.211 29.0176C164.678 27.3609 165.796 26.409 167.464 26.1006C167.863 26.026 168.273 26.016 168.786 25.9646H168.785ZM165.181 31.3492C165.216 31.6079 165.241 32.1286 165.358 32.6278C165.699 34.0722 166.931 35.112 168.402 35.2264C169.547 35.3159 171.037 34.7637 171.705 33.1153C172.116 32.1004 172.302 31.059 172.114 29.9695C171.991 29.2464 171.778 28.5516 171.364 27.938C170.61 26.822 169.085 26.2382 167.851 26.6213C166.758 26.9613 166.047 27.734 165.6 28.7639C165.278 29.5051 165.201 30.2945 165.183 31.3509L165.181 31.3492Z" fill="white"/>
<path d="M183.277 26.0673C183.849 26.1104 184.545 26.0922 185.211 26.2248C187.077 26.5979 188.18 27.8152 188.604 29.6294C188.947 31.0953 188.65 32.4983 187.903 33.7935C187.347 34.7569 186.473 35.2909 185.403 35.5032C185.03 35.5778 184.646 35.6044 184.266 35.6342C183.676 35.6806 183.086 35.7204 182.494 35.747C182.327 35.7536 182.152 35.7221 181.992 35.6723C181.748 35.5994 181.58 35.4253 181.542 35.1682C181.507 34.936 181.494 34.6972 181.502 34.4618C181.522 33.9344 181.586 33.4071 181.588 32.8797C181.596 30.8549 181.586 28.8301 181.582 26.8052C181.582 26.7654 181.582 26.7256 181.582 26.6858C181.598 26.1502 181.713 26.049 182.256 26.0656C182.558 26.0756 182.861 26.0656 183.277 26.0656V26.0673ZM182.726 31.0041C182.726 31.0041 182.741 31.0041 182.748 31.0041C182.748 32.1683 182.748 33.3324 182.748 34.4966C182.748 34.5364 182.746 34.5762 182.748 34.616C182.766 34.9045 182.84 35.0057 183.127 35.0969C183.485 35.2097 183.851 35.2047 184.22 35.1682C185.645 35.0289 186.841 34.0754 187.258 32.7006C187.604 31.5613 187.636 30.4055 187.303 29.2596C186.757 27.384 185.362 26.6162 183.603 26.7207C182.837 26.7671 182.71 26.9512 182.721 27.7123C182.738 28.8102 182.724 29.908 182.724 31.0058L182.726 31.0041Z" fill="white"/>
<path d="M155.423 30.9295C155.423 29.5514 155.423 28.1733 155.423 26.7952C155.423 26.6891 155.418 26.583 155.43 26.4768C155.45 26.3127 155.55 26.2082 155.71 26.1883C155.841 26.1717 155.974 26.17 156.105 26.1883C156.37 26.2231 156.472 26.3309 156.477 26.6078C156.487 27.0191 156.479 27.4287 156.477 27.84C156.477 28.4635 156.471 29.0854 156.472 29.7089C156.472 30.2048 156.642 30.3822 157.137 30.3839C158.364 30.3905 159.589 30.3888 160.816 30.3839C161.326 30.3822 161.512 30.1981 161.514 29.689C161.519 28.6957 161.511 27.7007 161.514 26.7073C161.514 26.2944 161.659 26.1634 162.068 26.175C162.404 26.1833 162.536 26.2977 162.548 26.6675C162.561 27.0904 162.53 27.5149 162.528 27.9378C162.525 29.3557 162.522 30.7736 162.528 32.1914C162.533 33.1715 162.555 34.1516 162.568 35.1317C162.571 35.3174 162.604 35.5612 162.393 35.6126C162.162 35.669 161.897 35.6507 161.662 35.5977C161.484 35.5562 161.511 35.3439 161.511 35.1847C161.511 34.1118 161.512 33.0389 161.514 31.9643C161.514 31.8714 161.519 31.7785 161.514 31.6857C161.494 31.2545 161.323 31.0621 160.895 31.0091C160.752 30.9908 160.607 31.0024 160.462 31.0024C159.447 31.0024 158.432 31.0041 157.417 31.0057C157.351 31.0057 157.285 30.9991 157.219 31.0024C156.664 31.0207 156.464 31.2246 156.464 31.7885C156.464 32.8083 156.471 33.8299 156.474 34.8498C156.474 34.9294 156.477 35.009 156.474 35.0886C156.462 35.5894 156.103 35.8298 155.641 35.6408C155.475 35.5728 155.412 35.4368 155.415 35.2594C155.422 34.9808 155.423 34.7022 155.423 34.4252C155.423 33.2594 155.423 32.0936 155.423 30.9278C155.42 30.9278 155.418 30.9278 155.415 30.9278L155.423 30.9295Z" fill="white"/>
<path d="M260.686 35.5597C260.124 35.7968 259.672 35.6459 259.431 35.1551C259.369 35.0257 259.329 34.8831 259.28 34.7455C259.009 33.9859 258.749 33.2231 258.465 32.4686C258.317 32.0706 258.054 31.9263 257.65 32.0424C257.057 32.2132 256.46 32.3873 255.891 32.6278C254.829 33.0772 254.146 33.8781 253.882 35.0207C253.87 35.0721 253.856 35.1236 253.841 35.175C253.72 35.626 253.28 35.8267 252.849 35.6327C252.719 35.573 252.675 35.4701 252.699 35.3425C252.727 35.2015 252.77 35.0605 252.82 34.9262C253.811 32.2331 254.804 29.5416 255.797 26.8485C255.828 26.7622 255.859 26.6743 255.897 26.5898C256.069 26.1901 256.295 26.0293 256.679 26.0409C257.05 26.0525 257.289 26.2399 257.416 26.5931C257.701 27.3891 257.997 28.1834 258.289 28.9778C259.042 31.0258 259.796 33.0739 260.548 35.1219C260.601 35.2662 260.64 35.4171 260.683 35.5614L260.686 35.5597ZM254.946 32.2264C255.544 32.0556 256.031 31.8998 256.527 31.7787C257.02 31.6576 257.52 31.5714 258.015 31.4702C257.942 30.9694 256.756 27.9446 256.527 27.7009C255.999 29.1967 255.47 30.666 254.947 32.2264H254.946Z" fill="white"/>
<path d="M131.578 35.5431C130.948 35.8217 130.47 35.6178 130.26 35.0208C129.977 34.2098 129.69 33.4022 129.391 32.5963C129.177 32.0175 128.954 31.8948 128.357 32.0872C127.707 32.2978 127.071 32.5515 126.434 32.8019C125.667 33.1037 125.21 33.6924 124.968 34.4669C124.894 34.7057 124.831 34.9528 124.727 35.18C124.501 35.6775 124.051 35.8085 123.513 35.5249C123.551 35.4088 123.588 35.2844 123.632 35.1634C124.666 32.3326 125.7 29.5002 126.734 26.6694C126.924 26.1503 127.16 25.9994 127.65 26.0558C127.909 26.0857 128.095 26.21 128.207 26.4422C128.27 26.5732 128.324 26.7075 128.375 26.8452C129.393 29.598 130.409 32.3525 131.425 35.1053C131.479 35.2513 131.527 35.3989 131.576 35.5431H131.578ZM125.831 32.1585C126.014 32.1353 126.118 32.1353 126.213 32.1071C126.97 31.8832 127.725 31.6593 128.514 31.5615C128.842 31.52 128.918 31.3807 128.797 31.0607C128.4 30.0109 127.993 28.9645 127.584 27.9181C127.559 27.8551 127.496 27.8087 127.406 27.6992C126.876 29.1983 126.367 30.6361 125.829 32.1585H125.831Z" fill="white"/>
<path d="M210.012 33.2926C209.989 33.6939 209.969 34.2096 209.928 34.7237C209.891 35.1765 209.621 35.4484 209.19 35.5446C208.262 35.7536 207.322 35.8895 206.369 35.7917C205.976 35.7519 205.582 35.6955 205.203 35.5927C203.684 35.1847 202.707 34.2047 202.31 32.6807C202.013 31.5464 202.011 30.3888 202.346 29.2645C202.919 27.3425 204.226 26.1982 206.191 25.8815C207.437 25.6808 208.598 26.0125 209.644 26.7272C209.786 26.8234 209.949 26.9329 209.885 27.1385C209.815 27.3607 209.667 27.5365 209.443 27.6145C209.383 27.6344 209.289 27.5929 209.227 27.5531C209.128 27.4901 209.042 27.4038 208.951 27.3276C207.317 25.9644 205.039 26.3773 203.961 28.2297C203.585 28.8748 203.443 29.5796 203.384 30.3142C203.314 31.1832 203.361 32.0372 203.654 32.8614C204.289 34.6474 205.727 35.4036 207.498 35.2113C207.772 35.1814 208.046 35.125 208.315 35.0604C208.763 34.9526 208.882 34.8149 208.894 34.3423C208.908 33.6541 208.902 32.9642 208.903 32.276C208.903 32.1699 208.897 32.0638 208.902 31.9576C208.905 31.893 208.912 31.8233 208.935 31.7636C209.002 31.5795 209.362 31.4983 209.759 31.5712C209.959 31.6077 210.013 31.684 210.015 31.946C210.017 32.3573 210.015 32.7669 210.015 33.2926H210.012Z" fill="white"/>
<path d="M220.858 35.8233C220.402 35.7603 219.937 35.7371 219.492 35.6276C217.833 35.2163 216.837 34.1351 216.454 32.4768C216.199 31.3723 216.241 30.2563 216.545 29.175C217.015 27.5018 218.178 26.4869 219.81 26.0292C221.187 25.6428 222.498 25.8451 223.697 26.661C223.73 26.6826 223.763 26.7058 223.795 26.729C224.09 26.9479 224.115 27.054 223.937 27.3127C223.739 27.5996 223.537 27.6543 223.27 27.4852C223.137 27.4006 223.018 27.2928 222.886 27.2066C221.987 26.6096 221.032 26.331 219.964 26.6792C219.213 26.923 218.629 27.3956 218.253 28.0739C217.472 29.4868 217.269 30.9892 217.708 32.558C217.859 33.0986 218.145 33.5779 218.496 34.014C219.66 35.4601 221.679 35.6657 223.11 34.4834C223.181 34.4253 223.247 34.3606 223.318 34.2993C223.564 34.0887 223.635 34.0854 223.81 34.2761C224.047 34.5331 224.072 34.7868 223.877 34.9726C223.829 35.0173 223.775 35.0555 223.719 35.092C222.931 35.5961 222.08 35.8681 221.136 35.7984C221.044 35.7918 220.952 35.7984 220.859 35.7984C220.859 35.8067 220.856 35.815 220.854 35.8233H220.858Z" fill="white"/>
<path d="M246.124 30.8698C246.124 29.3989 246.123 27.9296 246.126 26.4586C246.126 26.1402 246.184 26.0772 246.494 26.0772C247.455 26.0772 248.418 26.0606 249.376 26.1087C249.776 26.1286 250.185 26.2447 250.557 26.3973C251.369 26.7306 251.822 27.379 251.924 28.2463C252.028 29.1286 251.682 29.8333 250.966 30.3358C250.186 30.8831 249.299 31.0257 248.365 30.9477C248.26 30.9395 248.156 30.9129 248.052 30.9096C247.503 30.8864 247.204 31.1501 247.188 31.7039C247.175 32.1534 247.186 32.6044 247.193 33.0555C247.204 33.7039 247.216 34.354 247.241 35.0024C247.265 35.674 246.949 35.7337 246.372 35.6524C246.169 35.6242 246.137 35.4236 246.137 35.2428C246.137 34.8714 246.142 34.5016 246.144 34.1301C246.144 33.0439 246.144 31.9593 246.144 30.8731C246.137 30.8731 246.131 30.8731 246.124 30.8731V30.8698ZM248.356 26.515C248.278 26.52 248.12 26.52 247.963 26.5399C247.859 26.5532 247.757 26.583 247.658 26.6195C247.264 26.7588 247.087 27.0258 247.138 27.442C247.221 28.1153 247.213 28.7853 247.127 29.4569C247.054 30.0323 247.224 30.2629 247.783 30.3889C248.591 30.573 249.365 30.4071 250.084 30.0622C250.716 29.7587 251.029 29.1916 251.031 28.4851C251.031 27.7737 250.704 27.2464 250.067 26.9246C249.555 26.6659 249.014 26.5183 248.356 26.515Z" fill="white"/>
<path d="M191.425 11.6747C191.425 10.0462 191.425 8.41776 191.425 6.78928C191.425 6.08946 191.584 5.95016 192.276 6.02976C192.628 6.06956 192.75 6.16906 192.783 6.51897C192.811 6.80752 192.798 7.10105 192.798 7.39126C192.798 9.46915 192.798 11.547 192.798 13.6249C192.798 14.6713 192.809 15.7161 192.802 16.7625C192.799 17.2451 192.636 17.3893 192.144 17.3893C192.039 17.3893 191.932 17.3893 191.829 17.3728C191.58 17.3346 191.457 17.2053 191.432 16.9549C191.419 16.8239 191.424 16.6912 191.424 16.5585C191.424 14.93 191.424 13.3016 191.424 11.6731L191.425 11.6747Z" fill="white"/>
<path d="M219.052 11.7029C219.052 10.0877 219.052 8.47244 219.052 6.85888C219.052 6.73948 219.047 6.62008 219.06 6.50234C219.069 6.42605 219.085 6.33982 219.128 6.28012C219.324 6.00816 219.611 6.06122 219.885 6.08776C220.136 6.11263 220.367 6.18891 220.395 6.48741C220.419 6.73616 220.413 6.98823 220.413 7.23864C220.413 8.75933 220.413 10.2817 220.413 11.8024C220.413 12.4375 220.403 13.0727 220.405 13.7078C220.408 14.5552 220.418 15.401 220.424 16.2484C220.424 16.4474 220.438 16.6464 220.419 16.8437C220.388 17.2168 220.24 17.3561 219.87 17.3893C219.817 17.3943 219.765 17.3976 219.712 17.3992C219.199 17.4075 219.054 17.2699 219.054 16.7475C219.051 15.066 219.054 13.3861 219.054 11.7045L219.052 11.7029Z" fill="white"/>
<path d="M174.802 30.8747C174.802 29.4983 174.802 28.1219 174.802 26.7438C174.802 26.704 174.802 26.6642 174.802 26.6244C174.812 26.1269 175.127 25.9114 175.587 26.1037C175.672 26.1385 175.756 26.2347 175.79 26.3226C175.836 26.442 175.853 26.5813 175.853 26.7123C175.845 29.1219 175.832 31.5298 175.818 33.9393C175.818 34.1516 175.803 34.3639 175.82 34.5745C175.853 34.9758 175.968 35.0935 176.366 35.0902C177.499 35.0786 178.632 35.0521 179.765 35.0305C179.884 35.0289 180.002 35.0106 180.119 35.0189C180.342 35.0355 180.444 35.1416 180.451 35.334C180.458 35.5264 180.354 35.6358 180.134 35.659C180.057 35.6673 179.976 35.6623 179.897 35.6623C178.368 35.6623 176.839 35.6657 175.31 35.664C174.867 35.664 174.802 35.6026 174.801 35.1615C174.797 33.732 174.801 32.3026 174.801 30.8731L174.802 30.8747Z" fill="white"/>
<path d="M145.68 37.946C145.787 37.8449 145.881 37.7172 146.005 37.6442C147.196 36.9527 147.718 35.8698 147.738 34.5398C147.776 32.1286 147.769 29.7174 147.779 27.3062C147.779 27.0674 147.748 26.8302 147.75 26.5914C147.753 26.2299 147.89 26.0923 148.249 26.0691C148.329 26.0641 148.408 26.0657 148.487 26.0724C148.838 26.1022 148.904 26.1951 148.894 26.5583C148.869 27.4438 148.848 28.3294 148.841 29.2166C148.825 31.0706 148.84 32.9263 148.804 34.7803C148.777 36.1451 148.141 37.15 146.892 37.7354C146.714 37.82 146.539 37.9212 146.351 37.9759C146.157 38.0339 145.949 38.0455 145.748 38.077C145.726 38.0323 145.703 37.9875 145.682 37.9427L145.68 37.946Z" fill="white"/>
<path d="M190.381 30.9031C190.381 29.54 190.381 28.1785 190.381 26.8153C190.381 26.7888 190.381 26.7623 190.381 26.7357C190.392 26.2316 190.808 25.9878 191.243 26.2498C191.341 26.3095 191.41 26.4439 191.453 26.5599C191.487 26.6528 191.468 26.7689 191.468 26.875C191.468 29.5599 191.466 32.2464 191.464 34.9312C191.464 35.0108 191.466 35.0904 191.463 35.17C191.443 35.5249 191.303 35.6592 190.943 35.6708C190.514 35.6841 190.392 35.5813 190.391 35.1501C190.386 34.1717 190.396 33.1916 190.397 32.2132C190.397 31.7771 190.397 31.3409 190.397 30.9031C190.392 30.9031 190.386 30.9031 190.381 30.9031Z" fill="white"/>
<path d="M220.254 1.7413C220.449 1.76784 220.647 1.77944 220.837 1.82588C221.102 1.89055 221.176 2.00995 221.138 2.24544C221.092 2.52238 220.944 2.65007 220.685 2.63349C220.489 2.62022 220.291 2.58539 220.096 2.59369C219.814 2.60529 219.595 2.7363 219.473 3.00661C219.296 3.40129 219.417 3.76115 219.817 3.91869C220.182 4.06297 220.553 4.19564 220.967 4.1094C221.265 4.04804 221.382 4.15086 221.399 4.41122C221.42 4.75284 221.303 4.91204 220.998 4.91204C220.406 4.91204 219.814 4.90043 219.224 4.89379C218.841 4.89048 218.46 4.89379 218.077 4.8855C217.802 4.87887 217.713 4.79263 217.695 4.54223C217.675 4.26363 217.749 4.17408 218.041 4.12764C218.106 4.11769 218.173 4.11438 218.237 4.10111C218.407 4.06794 218.48 3.96844 218.46 3.78934C218.445 3.64507 218.435 3.49748 218.452 3.35486C218.572 2.30845 219.196 1.75623 220.254 1.73633V1.7413Z" fill="white"/>
<path d="M143.585 6.36292C144.124 6.37619 144.444 6.65976 144.444 7.13073C144.444 7.62657 144.104 7.93336 143.568 7.9201C143.062 7.90849 142.749 7.58843 142.765 7.10088C142.782 6.61001 143.069 6.35131 143.583 6.36292H143.585Z" fill="white"/>
<path d="M155.944 20.6447C155.416 20.6447 155.164 20.3976 155.157 19.8769C155.151 19.3412 155.421 19.0676 155.952 19.0726C156.472 19.0759 156.754 19.3661 156.749 19.8901C156.744 20.3876 156.468 20.6447 155.944 20.6447Z" fill="white"/>
<path d="M204.31 20.6446C203.806 20.6446 203.548 20.3926 203.543 19.9017C203.54 19.3545 203.797 19.0841 204.324 19.0792C204.85 19.0742 205.151 19.3445 205.153 19.8171C205.153 20.3395 204.843 20.6463 204.31 20.6446Z" fill="white"/>
<path d="M125.892 6.58515C126.39 6.57686 126.703 6.8621 126.716 7.33306C126.731 7.83056 126.423 8.17715 125.946 8.19705C125.503 8.2153 125.12 7.86539 125.112 7.4309C125.103 6.92511 125.41 6.59179 125.89 6.5835L125.892 6.58515Z" fill="white"/>
<path d="M178.026 7.3928C178.021 7.93176 177.775 8.18548 177.265 8.17719C176.729 8.1689 176.451 7.89362 176.459 7.37953C176.467 6.86877 176.761 6.58851 177.282 6.59183C177.788 6.59514 178.031 6.8555 178.024 7.3928H178.026Z" fill="white"/>
<path d="M175.634 7.38955C175.632 7.92188 175.372 8.1955 174.877 8.18721C174.379 8.17892 174.084 7.88871 174.082 7.40448C174.08 6.8904 174.376 6.58858 174.884 6.58692C175.382 6.58526 175.636 6.85723 175.634 7.38955Z" fill="white"/>
<path d="M273.797 8.17901C273.305 8.18565 273.069 7.92695 273.053 7.36477C273.04 6.87059 273.305 6.59033 273.79 6.59033C274.308 6.59033 274.583 6.85401 274.586 7.35814C274.591 7.88881 274.318 8.17238 273.795 8.17901H273.797Z" fill="white"/>
<path d="M270.66 7.35293C270.663 6.83885 270.904 6.59839 271.41 6.59839C271.925 6.59839 272.195 6.86704 272.195 7.37781C272.195 7.90184 271.911 8.1821 271.384 8.17878C270.884 8.17546 270.655 7.91345 270.66 7.35293Z" fill="white"/>
<path d="M228.707 7.35793C228.712 6.83555 228.951 6.5868 229.446 6.59012C229.939 6.59344 230.241 6.89028 230.243 7.37451C230.244 7.8803 229.939 8.1788 229.423 8.1788C228.92 8.1788 228.701 7.92674 228.707 7.35627V7.35793Z" fill="white"/>
<path d="M127.536 7.40452C127.531 6.8722 127.803 6.58862 128.326 6.58862C128.792 6.58862 129.097 6.91366 129.088 7.40452C129.079 7.86388 128.796 8.16736 128.367 8.17565C127.828 8.18726 127.542 7.92026 127.536 7.40452Z" fill="white"/>
<path d="M231.804 8.18059C231.31 8.17561 231.052 7.89038 231.065 7.36303C231.077 6.8705 231.371 6.58361 231.865 6.57864C232.287 6.57532 232.631 6.92854 232.627 7.368C232.624 7.85887 232.296 8.1839 231.804 8.17893V8.18059Z" fill="white"/>
<path d="M273.374 5.42929C273.374 5.90523 273.056 6.22363 272.576 6.22861C272.154 6.23358 271.868 5.9782 271.865 5.59512C271.862 5.02963 272.134 4.69962 272.596 4.70792C273.056 4.71621 273.374 5.01139 273.374 5.43095V5.42929Z" fill="white"/>
</g>
<defs>
<clipPath id="clip0_21_753">
<rect width="282" height="38.0803" fill="white"/>
</clipPath>
</defs>
</svg>
